<svg width="748" height="688" viewBox="0 0 748 688" fill="none" xmlns="http://www.w3.org/2000/svg">
<path fill-rule="evenodd" clip-rule="evenodd" d="M367 0H419C501.51 7.6 572.85 39.6 633 96C627.72 100.14 621.72 102.97 615 104.5C614.47 111.14 616.81 116.81 622 121.5C624 122.83 626 124.17 628 125.5C631.01 125.63 634.01 125.63 637 125.5C629.97 139.85 622.13 153.68 613.5 167C592.89 195.95 570.39 223.45 546 249.5C539.64 255.52 532.48 260.36 524.5 264C523.24 263.74 522.24 263.07 521.5 262C518.89 246.13 519.89 230.46 524.5 215C525 213.17 526.17 212 528 211.5C550.53 207.49 569.7 197.32 585.5 181C595.22 170.56 599.55 158.22 598.5 144C594.93 139.47 590.43 136.3 585 134.5C587.15 133.09 589.48 132.26 592 132C587.96 118.64 578.96 112.14 565 112.5C557.89 115.28 551.55 119.28 546 124.5C525.96 142.77 510.46 164.27 499.5 189C489.12 212.09 488.45 235.42 497.5 259C501.27 268.06 507.43 274.9 516 279.5C524.78 281.31 532.78 279.64 540 274.5C555.43 262.4 569.6 248.9 582.5 234C597.55 216.88 611.89 199.22 625.5 181C636.76 162.82 647.26 144.15 657 125C657.46 124.2 658.12 123.87 659 124C664.1 131.22 669.44 138.22 675 145C665.55 168.52 656.38 192.19 647.5 216C645.7 221.2 644.53 226.53 644 232C647.5 244.68 655.5 253.51 668 258.5C671.67 259.17 675.33 259.17 679 258.5C683.53 254.3 687.7 249.8 691.5 245C698.44 234.76 705.61 224.76 713 215C739.14 282.73 744.31 352.07 728.5 423C699.66 533.49 633.5 612.66 530 660.5C494.31 675.51 457.31 684.67 419 688H367C288.23 681.21 219.56 651.54 161 599C182.47 583.71 202.3 566.38 220.5 547C230.51 535.65 238.51 522.98 244.5 509C251.92 489.53 248.09 472.69 233 458.5C204.23 436.36 171.73 425.86 135.5 427C134.76 423.72 135.42 420.72 137.5 418C150.48 404.42 165.98 394.75 184 389C184.67 392 185.33 395 186 398C187.31 406.81 192.15 412.81 200.5 416C201.72 415.64 202.89 415.14 204 414.5C203.94 407.76 205.78 401.59 209.5 396C218.41 385.09 228.58 375.59 240 367.5C244.65 363.71 246.15 358.88 244.5 353C243.5 346.14 240.33 340.64 235 336.5C229.3 335.18 224.3 336.52 220 340.5C177.18 345.83 142.34 365.33 115.5 399C110.66 406 106.33 413.34 102.5 421C101.49 425.61 102.16 429.95 104.5 434C109.97 442.1 115.8 449.93 122 457.5C143.68 458.04 165.02 461.04 186 466.5C196.61 469.31 206.28 473.97 215 480.5C220.07 486.77 220.24 493.27 215.5 500C201.48 519.35 185.32 536.85 167 552.5C157.73 560.95 148.06 568.78 138 576C129.64 565.97 121.3 555.97 113 546C133.79 530.1 156.79 518.1 182 510C183.66 497.5 178.66 488.67 167 483.5C156.8 482.8 147.14 484.8 138 489.5C122.63 497.18 107.63 505.35 93.0002 514C68.8202 470.78 54.4802 424.44 50.0002 375C60.3502 389.95 70.1802 389.61 79.5002 374C85.0302 364.28 90.0302 354.28 94.5002 344C106.89 313.49 118.89 282.83 130.5 252C143.02 248.99 154.86 244.16 166 237.5C199.83 218.81 229.67 194.98 255.5 166C269.04 150.26 278.37 132.26 283.5 112C286.71 98.43 284.71 85.77 277.5 74C272 67.91 265.16 65.74 257 67.5C245.05 70.64 234.38 76.14 225 84C218.88 70.57 208.88 66.4 195 71.5C180.62 85.11 168.79 100.61 159.5 118C140.68 151.45 124.34 186.12 110.5 222C97.9502 258.31 84.6202 294.31 70.5002 330C66.2802 340.11 61.2802 349.77 55.5002 359C53.5702 361.04 51.4102 362.71 49.0002 364C45.7202 231.39 98.3902 127.89 207 53.5C256.13 22.96 309.46 5.12 367 0Z" fill="#C70909"/>
<path opacity="0.99" d="M636.935 124.001C634.126 124.124 631.308 124.129 628.481 124.019C627.599 123.431 626.716 122.842 625.833 122.252C624.864 121.606 623.894 120.959 622.924 120.313C618.402 116.192 616.267 111.347 616.436 105.699C622.883 104.079 628.687 101.267 633.832 97.2532C655.863 84.9559 677.796 72.4334 699.622 59.6663C714.821 65.8832 725.268 76.7473 731.031 92.3505C731.295 94.7416 730.987 97.094 730.106 99.4442C718.824 126.142 706.673 152.44 693.664 178.319C685.344 194.366 678.482 211.115 673.067 228.555L673.063 228.57L673.058 228.585C672.31 231.186 672.31 233.814 673.058 236.415L673.917 239.401L675.721 236.871C685.756 222.799 695.271 208.447 704.266 193.804C714.949 177.539 725.777 161.293 736.751 145.066C739.214 145.33 741.179 146.103 742.719 147.322C744.386 148.643 745.666 150.575 746.5 153.226V158.57C734.937 177.06 723.355 195.589 711.763 214.148C704.383 223.897 697.222 233.885 690.289 244.112C686.638 248.72 682.64 253.049 678.303 257.099C675.004 257.653 671.716 257.636 668.416 257.051C656.508 252.256 648.916 243.893 645.52 231.868C646.05 226.62 647.184 221.504 648.912 216.507C657.785 192.715 666.949 169.062 676.392 145.559L676.395 145.55L676.399 145.541C681.265 132.956 685.93 120.281 690.415 107.497L690.69 106.714L690.173 106.066C689.597 105.343 688.833 104.749 687.853 104.584C686.906 104.426 686.024 104.712 685.268 105.187C677.778 108.766 670.169 112.068 662.451 115.104L662.13 115.23L661.897 115.484C659.992 117.551 658.628 119.917 657.831 122.568C657.608 122.622 657.387 122.702 657.172 122.81C656.517 123.137 656.04 123.66 655.699 124.252L655.68 124.286L655.663 124.32C645.952 143.413 635.484 162.028 624.259 180.155C610.685 198.324 596.383 215.935 581.373 233.01L581.366 233.018C568.536 247.837 554.445 261.263 539.102 273.298C532.291 278.136 524.797 279.728 516.517 278.074C508.362 273.645 502.504 267.111 498.893 258.443C489.994 235.244 490.654 212.335 500.868 189.615L500.871 189.608C511.747 165.068 527.124 143.739 547.01 125.608L547.019 125.601L547.028 125.593C552.373 120.565 558.468 116.7 565.301 113.994C571.916 113.865 577.224 115.347 581.342 118.321C585.15 121.072 588.067 125.19 590.029 130.792C587.954 131.231 586.002 132.049 584.177 133.246L581.582 134.947L584.528 135.924C589.532 137.583 593.693 140.46 597.036 144.572C597.929 158.175 593.735 169.948 584.412 179.967C568.835 196.053 549.954 206.069 527.737 210.023L527.67 210.035L527.605 210.053C525.269 210.691 523.701 212.255 523.058 214.587C518.387 230.259 517.374 246.154 520.02 262.243L520.074 262.576L520.266 262.853C521.221 264.233 522.551 265.129 524.197 265.469L524.677 265.568L525.122 265.365C533.254 261.656 540.552 256.722 547.031 250.589L547.064 250.558L547.095 250.525C571.53 224.427 594.073 196.875 614.722 167.87L614.741 167.843L614.759 167.816C623.421 154.446 631.29 140.564 638.347 126.16L639.458 123.892L636.935 124.001Z" fill="black" stroke="white" stroke-width="3"/>
<path d="M225.963 85.1497C235.163 77.4404 245.623 72.0451 257.348 68.9593C264.934 67.3326 271.185 69.3058 276.294 74.9031C283.233 86.2941 285.148 98.5044 282.043 111.643C276.97 131.671 267.752 149.455 254.371 165.012C228.656 193.861 198.952 217.581 165.275 236.187L165.252 236.199L165.23 236.212C154.22 242.795 142.521 247.567 130.149 250.542L129.376 250.727L129.096 251.471C117.493 282.284 105.5 312.926 93.1171 343.419C88.6723 353.639 83.7013 363.581 78.2039 373.245C73.5933 380.962 69.1783 384.321 65.0851 384.461C61.0338 384.599 56.4553 381.611 51.397 374.381C50.6951 371.272 50.3807 368.11 50.4671 364.9C52.7218 363.595 54.7579 361.967 56.5896 360.031L56.6921 359.922L56.7713 359.796C62.5949 350.496 67.6326 340.763 71.8842 330.578L71.8896 330.565L71.8948 330.552C86.0196 294.849 99.3544 258.837 111.909 222.515C125.721 186.711 142.027 152.115 160.807 118.735L160.815 118.721L160.823 118.707C169.988 101.551 181.644 86.2509 195.806 72.8032C202.393 70.4363 207.857 70.3205 212.333 72.1858C216.873 74.078 220.674 78.1249 223.635 84.622L224.452 86.4158L225.963 85.1497Z" fill="black" stroke="white" stroke-width="3"/>
<path d="M372.764 268.149C365.465 278.749 358.652 289.715 352.315 301.046C345.369 307.175 339.594 309.322 334.851 308.316C330.087 307.306 325.699 302.972 321.909 294.478C318.743 283.878 316.942 273.033 316.499 261.94L316.383 259.061L314.091 260.807C310.516 263.529 306.946 264.992 303.366 265.297C299.789 265.602 296.081 264.761 292.211 262.679L290.833 261.938L290.15 263.346C281.546 281.093 268.04 293.309 249.59 300.053C235.827 302.859 224.289 299.252 214.793 289.187C210.325 277.579 209.379 265.649 211.959 253.352C221.719 217.516 240.708 187.632 268.936 163.673C272.875 160.715 277.06 158.129 281.503 155.925C288.633 154.353 294.943 155.771 300.575 160.181L302.215 161.465L302.913 159.503C303.575 157.643 304.46 156.599 305.439 156.081C306.377 155.585 307.647 155.442 309.394 155.891C316.105 160.121 320.693 165.183 323.274 171.049C325.864 176.936 326.49 183.76 325.05 191.59C317.767 210.445 309.155 228.666 299.194 246.261L299.124 246.386L299.078 246.522C298.17 249.224 297.583 251.402 297.364 253.009C297.255 253.803 297.221 254.56 297.335 255.211C297.445 255.841 297.759 256.689 298.629 257.124C299.463 257.541 300.319 257.326 300.893 257.085C301.504 256.829 302.143 256.401 302.789 255.881C304.094 254.834 305.713 253.183 307.63 250.986L307.662 250.949L307.692 250.91C309.856 248.076 312.023 245.244 314.191 242.412C316.358 239.579 318.526 236.746 320.692 233.91L320.898 233.64L320.968 233.308C329.694 191.659 346.264 153.529 370.704 118.895C377.442 110.282 383.788 106.463 389.728 106.612C395.679 106.762 401.88 110.909 408.279 119.872L408.291 119.888L408.303 119.905C410.473 122.775 411.381 125.883 411.069 129.286C396.091 143.393 383.464 159.38 373.203 177.246C357.934 203.094 346.552 230.552 339.047 259.625L339.043 259.641L339.039 259.658C336.517 270.417 336.009 281.262 337.514 292.204L337.912 295.098L340.032 293.089C343.205 290.082 345.806 286.616 347.833 282.688L347.841 282.672L347.849 282.656C350.684 276.82 353.517 270.988 356.349 265.155C359.182 259.323 362.014 253.49 364.849 247.656L364.907 247.537L364.943 247.411C375.758 209.393 395.062 176.522 422.867 148.754C429.868 145.601 435.472 145.2 439.876 147.108C444.183 148.974 447.719 153.212 450.312 160.238C444.112 168.311 437.168 175.86 429.487 182.894L429.436 182.94L429.391 182.99C414.498 199.352 402.079 217.467 392.158 237.33L392.15 237.345L392.143 237.361C387.892 246.389 386.852 255.731 389.037 265.333L389.114 265.67L389.33 265.939C390.216 267.042 391.294 267.843 392.581 268.195C393.869 268.546 395.205 268.403 396.529 267.904L396.557 267.893L396.585 267.881C401.002 266.012 405.113 263.617 408.915 260.688L408.994 260.628L409.063 260.558C447.651 221.769 473.944 175.705 487.951 122.381L487.958 122.351L487.965 122.321C491.325 106.974 492.176 91.5011 490.498 75.8998C490.467 74.5245 490.849 73.4161 491.641 72.4966C504.593 72.5063 515.025 77.5261 523.052 87.5877C524.712 104.108 522.403 120.046 516.111 135.432L516.107 135.444L516.102 135.456C495.614 188.12 463.924 232.741 421.04 269.347C412.78 276.066 403.389 280.118 392.849 281.507C389.612 281.731 386.644 280.995 383.921 279.307C380.479 276.056 377.61 272.38 375.309 268.268L374.132 266.164L372.764 268.149Z" fill="black" stroke="white" stroke-width="3"/>
<path fill-rule="evenodd" clip-rule="evenodd" d="M245 90.0001C253.51 88.9701 256.34 92.6401 253.5 101C246.41 119.85 236.74 137.18 224.5 153C202.71 182.46 177.21 208.29 148 230.5C144.9 232.54 141.56 233.54 138 233.5C155.39 193.84 177.22 157 203.5 123C210.67 115.83 217.83 108.67 225 101.5C231.57 97.3901 238.23 93.5501 245 90.0001Z" fill="#C70909"/>
<path fill-rule="evenodd" clip-rule="evenodd" d="M568 146C570.48 162.23 564.81 175.07 551 184.5C546.38 186.76 541.71 188.93 537 191C535.98 190.5 535.81 189.83 536.5 189C545.29 173.38 555.79 159.05 568 146Z" fill="#C70909"/>
<path opacity="0.97" fill-rule="evenodd" clip-rule="evenodd" d="M695 179C698.16 183.31 700.82 187.97 703 193C694.02 207.62 684.52 221.95 674.5 236C673.83 233.67 673.83 231.33 674.5 229C679.89 211.64 686.72 194.97 695 179Z" fill="#C70909"/>
<path fill-rule="evenodd" clip-rule="evenodd" d="M288 185C288.54 185.06 288.88 185.39 289 186C282.68 199.47 277.84 213.47 274.5 228C273.87 233.68 274.04 239.35 275 245C274.98 247.13 274.48 249.13 273.5 251C267.32 260.68 260.66 270.02 253.5 279C249.97 282.87 246.13 286.37 242 289.5C236.98 292.41 233.65 291.24 232 286C233.31 275.9 236.14 266.24 240.5 257C252.62 230.4 268.45 206.4 288 185Z" fill="#C70909"/>
<path d="M296.578 484.043C326.368 453.254 355.848 422.106 385.018 390.608C387.542 388.659 390.315 388.094 393.487 388.916C399.881 391.908 404.174 395.776 406.552 400.452C408.92 405.111 409.481 410.756 408.073 417.498C393.705 445.891 379.079 474.154 364.174 502.298L364.152 502.34L364.133 502.383C360.722 509.939 357.703 517.647 355.077 525.526L355.057 525.585L355.042 525.646C354.154 529.306 354.328 532.943 355.586 536.5L356.535 539.185L358.212 536.883C368.882 522.236 379.071 507.208 388.769 491.799L388.864 491.649L388.92 491.482C399.532 460.193 417.203 433.585 441.96 411.653C446.017 408.486 450.238 405.559 454.631 402.872C462.221 400.43 469.167 401.541 475.62 406.215L477.062 407.259L477.847 405.66C478.912 403.488 480.118 402.394 481.347 401.984C482.553 401.582 484.125 401.723 486.2 402.775C493.502 408.295 498.05 414.483 500.013 421.317C501.981 428.168 501.4 435.843 498.119 444.411C490.073 461.5 481.758 478.469 473.164 495.318L473.13 495.385L473.102 495.456C472.124 497.968 472.336 500.451 473.71 502.766L474.693 504.421L476.058 503.064C488.721 490.471 499.956 476.721 509.753 461.824L509.814 461.732L509.861 461.631C522.637 434.083 536.928 407.483 552.744 381.84C555.384 378.265 558.349 374.961 561.658 371.929C567.555 371.237 572.974 372.463 577.973 375.624C579.291 377.379 579.662 379.261 579.108 381.4C575.514 387.283 572.512 393.301 570.103 399.453L572.503 401.116C578.986 395.289 586.004 390.214 593.576 385.898C601.131 383.87 607.003 384.333 611.41 386.946C615.838 389.572 619.109 394.561 621.023 402.275C623.528 422.183 620.568 441.2 612.14 459.367C598.927 487.424 579.648 510.345 554.285 528.169C548.538 530.404 542.588 531.034 536.427 530.05C531.728 527.972 528.591 524.519 526.947 519.599C525.071 511.176 524.089 502.635 524 493.985L521.141 493.365C500.49 537.542 487.792 583.963 483.029 632.63C482.803 633.153 482.526 633.639 482.197 634.092C475.325 634.947 469.643 633.99 465.05 631.355C460.372 628.671 456.655 624.151 453.968 617.628C453.388 612.163 453.714 606.739 454.957 601.359C462.972 570.717 473.778 541.143 487.354 512.645L487.81 511.688L487.061 510.939L487.059 510.937L487.057 510.935L487.055 510.933L487.053 510.932L487.051 510.93L487.049 510.928L487.047 510.926L487.045 510.924L487.043 510.922L487.041 510.92L487.039 510.918L487.037 510.916L487.035 510.914L487.034 510.912L487.032 510.91L487.03 510.908L487.028 510.906L487.026 510.904L487.024 510.902L487.022 510.901L487.02 510.899L487.018 510.897L487.016 510.895L487.014 510.893L487.012 510.891L487.01 510.889L487.008 510.887L487.006 510.885L487.004 510.883L487.002 510.881L487.001 510.879L486.999 510.877L486.997 510.875L486.995 510.873L486.993 510.871L486.991 510.869L486.989 510.868L486.987 510.866L486.985 510.864L486.983 510.862L486.981 510.86L486.979 510.858L486.977 510.856L486.975 510.854L486.973 510.852L486.971 510.85L486.969 510.848L486.968 510.846L486.966 510.844L486.964 510.842L486.962 510.84L486.96 510.838L486.958 510.836L486.956 510.835L486.954 510.833L486.952 510.831L486.95 510.829L486.948 510.827L486.946 510.825L486.944 510.823L486.942 510.821L486.94 510.819L486.938 510.817L486.936 510.815L486.934 510.813L486.933 510.811L486.931 510.809L486.929 510.807L486.927 510.805L486.925 510.803L486.923 510.801L486.921 510.799L486.919 510.798L486.917 510.796L486.915 510.794L486.913 510.792L486.911 510.79L486.909 510.788L486.907 510.786L486.905 510.784L486.903 510.782L486.901 510.78L486.899 510.778L486.897 510.776L486.896 510.774L486.894 510.772L486.892 510.77L486.89 510.768L486.888 510.766L486.886 510.764L486.884 510.762L486.882 510.76L486.88 510.759L486.878 510.757L486.876 510.755L486.874 510.753L486.872 510.751L486.87 510.749L486.868 510.747L486.866 510.745L486.864 510.743L486.862 510.741L486.86 510.739L486.858 510.737L486.856 510.735L486.855 510.733L486.853 510.731L486.851 510.729L486.849 510.727L486.847 510.725L486.845 510.723L486.843 510.721L486.841 510.719L486.839 510.718L486.837 510.716L486.835 510.714L486.833 510.712L486.831 510.71L486.829 510.708L486.827 510.706L486.825 510.704L486.823 510.702L486.821 510.7L486.819 510.698L486.817 510.696L486.815 510.694L486.813 510.692L486.812 510.69L486.81 510.688L486.808 510.686L486.806 510.684L486.804 510.682L486.802 510.68L486.8 510.678L486.798 510.676L486.796 510.675L486.794 510.673L486.792 510.671L486.79 510.669L486.788 510.667L486.786 510.665L486.784 510.663L486.782 510.661L486.78 510.659L486.778 510.657L486.776 510.655L486.774 510.653L486.772 510.651L486.77 510.649L486.768 510.647L486.767 510.645L486.765 510.643L486.763 510.641L486.761 510.639L486.759 510.637L486.757 510.635L486.755 510.633L486.753 510.631L486.751 510.63L486.749 510.628L486.747 510.626L486.745 510.624L486.743 510.622L486.741 510.62L486.739 510.618L486.737 510.616L486.735 510.614L486.733 510.612L486.731 510.61L486.729 510.608L486.727 510.606L486.725 510.604L486.723 510.602L486.721 510.6L486.72 510.598L486.718 510.596L486.716 510.594L486.714 510.592L486.712 510.59L486.71 510.588L486.708 510.586L486.706 510.584L486.704 510.582L486.702 510.581L486.7 510.579L486.698 510.577L486.696 510.575L486.694 510.573L486.692 510.571L486.69 510.569L486.688 510.567L486.686 510.565L486.684 510.563L486.682 510.561L486.68 510.559L486.678 510.557L486.676 510.555L486.674 510.553L486.672 510.551L486.671 510.549L486.669 510.547L486.667 510.545L486.665 510.543L486.663 510.541L486.661 510.539L486.659 510.537L486.657 510.535L486.655 510.533L486.653 510.531L486.651 510.53L486.649 510.528L486.647 510.526L486.645 510.524L486.643 510.522L486.641 510.52L486.639 510.518L486.637 510.516L486.635 510.514L486.633 510.512L486.631 510.51L486.629 510.508L486.627 510.506L486.625 510.504L486.623 510.502L486.621 510.5L486.619 510.498L486.618 510.496L486.616 510.494L486.614 510.492L486.612 510.49L486.61 510.488L486.608 510.486L486.606 510.484L486.604 510.482L486.602 510.48L486.6 510.478L486.598 510.477L486.596 510.475L486.594 510.473L486.592 510.471L486.59 510.469L486.588 510.467L486.586 510.465L486.584 510.463L486.582 510.461L486.58 510.459L486.578 510.457L486.576 510.455L486.574 510.453L486.572 510.451L486.57 510.449L486.568 510.447L486.566 510.445L486.565 510.443L486.563 510.441L486.561 510.439L486.559 510.437L486.557 510.435L486.555 510.433L486.553 510.431L486.551 510.429L486.549 510.427L486.547 510.425L486.545 510.424L486.543 510.422L486.541 510.42L486.539 510.418L486.537 510.416L486.535 510.414L486.533 510.412L486.531 510.41L486.529 510.408L486.527 510.406L486.525 510.404L486.523 510.402L486.521 510.4L486.519 510.398L486.517 510.396L486.515 510.394L486.513 510.392L486.512 510.39L486.51 510.388L486.508 510.386L486.506 510.384L486.504 510.382L486.502 510.38L486.5 510.378L486.498 510.376L486.496 510.374L486.494 510.372L486.492 510.371L486.49 510.369L486.488 510.367L486.486 510.365L486.484 510.363L486.482 510.361L486.48 510.359L486.478 510.357L486.476 510.355L486.474 510.353L486.472 510.351L486.47 510.349L486.468 510.347L486.466 510.345L486.464 510.343L486.462 510.341L486.461 510.339L486.459 510.337L486.457 510.335L486.455 510.333L486.453 510.331L486.451 510.329L486.449 510.327L486.447 510.325L486.445 510.323L486.443 510.321L486.441 510.32L486.439 510.318L486.437 510.316L486.435 510.314L486.433 510.312L486.431 510.31L486.429 510.308L486.427 510.306L486.425 510.304L486.423 510.302L486.421 510.3L486.419 510.298L486.417 510.296L486.415 510.294L486.413 510.292L486.411 510.29L486.41 510.288L486.408 510.286L486.406 510.284L486.404 510.282L486.402 510.28L486.4 510.278L486.398 510.276L486.396 510.274L486.394 510.272L486.392 510.271L486.39 510.269L486.388 510.267L486.386 510.265L486.384 510.263L486.382 510.261L486.38 510.259L486.378 510.257L486.376 510.255L486.374 510.253L486.372 510.251L486.37 510.249L486.368 510.247L486.366 510.245L486.364 510.243L486.363 510.241L486.361 510.239L486.359 510.237L486.357 510.235L486.355 510.233L486.353 510.231L486.351 510.229L486.349 510.227L486.347 510.225L486.345 510.224L486.343 510.222L486.341 510.22L486.339 510.218L486.337 510.216L486.335 510.214L486.333 510.212L486.331 510.21L486.329 510.208L486.327 510.206L486.325 510.204L486.323 510.202L486.321 510.2L486.319 510.198L486.317 510.196L486.316 510.194L486.314 510.192L486.312 510.19L486.31 510.188L486.308 510.186L486.306 510.184L486.304 510.182L486.302 510.18L486.3 510.179L486.298 510.177L486.296 510.175L486.294 510.173L486.292 510.171L486.29 510.169L486.288 510.167L486.286 510.165L486.284 510.163L486.282 510.161L486.28 510.159L486.278 510.157L486.276 510.155L486.274 510.153L486.273 510.151L486.271 510.149L486.269 510.147L486.267 510.145L486.265 510.143L486.263 510.141L486.261 510.139L486.259 510.137L486.257 510.136L486.255 510.134L486.253 510.132L486.251 510.13L486.249 510.128L486.247 510.126L486.245 510.124L486.243 510.122L486.241 510.12L486.239 510.118L486.237 510.116L486.235 510.114L486.233 510.112L486.232 510.11L486.23 510.108L486.228 510.106L486.226 510.104L486.224 510.102L486.222 510.1L486.22 510.098L486.218 510.097L486.216 510.095L486.214 510.093L486.212 510.091L486.21 510.089L486.208 510.087L486.206 510.085L486.204 510.083L486.202 510.081L486.2 510.079L486.198 510.077L486.196 510.075L486.195 510.073L486.193 510.071L486.191 510.069L486.189 510.067L486.187 510.065L486.185 510.063L486.183 510.061L486.181 510.06L486.179 510.058L486.177 510.056L486.175 510.054L486.173 510.052L486.171 510.05L486.169 510.048L486.167 510.046L486.165 510.044L486.163 510.042L486.161 510.04L486.159 510.038L486.158 510.036L486.156 510.034L486.154 510.032L486.152 510.03L486.15 510.028L486.148 510.026L486.146 510.025L486.144 510.023L486.142 510.021L486.14 510.019L486.138 510.017L486.136 510.015L486.134 510.013L486.132 510.011L486.13 510.009L486.128 510.007L486.126 510.005L486.125 510.003L486.123 510.001L486.121 509.999L486.119 509.997L486.117 509.995L486.115 509.993L486.113 509.992L486.111 509.99L486.109 509.988L486.107 509.986L486.105 509.984L486.103 509.982L486.101 509.98L486.099 509.978L486.097 509.976L486.095 509.974L486.094 509.972L486.092 509.97L486.09 509.968L486.088 509.966L486.086 509.964L486.084 509.962L486.082 509.961L486.08 509.959L486.078 509.957L486.076 509.955L486.074 509.953L486.072 509.951L486.07 509.949L486.068 509.947L486.066 509.945L486.064 509.943L486.063 509.941L486.061 509.939L485.274 509.153L484.293 509.677C481.749 511.036 479.018 511.639 476.07 511.502L476.048 511.5L476.025 511.5C472.633 511.442 469.439 510.961 466.429 510.063L465.21 509.699L464.652 510.842C457.718 525.043 447.288 535.801 433.34 543.152C424.956 546.95 417.184 548.113 409.977 546.767C402.82 545.43 396.073 541.593 389.739 535.122C388.434 532.493 387.136 529.889 385.839 527.323L384.707 525.086L383.271 527.14C371.364 544.163 359.654 561.314 348.13 578.601C341.71 579.388 336.435 578.447 332.196 575.919C327.848 573.326 324.412 568.959 321.967 562.635C318.991 537.969 322.614 514.311 332.861 491.631C339.598 477.496 346.266 463.5 352.855 449.644L350.456 447.922C328.931 468.766 308.888 490.814 290.328 514.064L290.315 514.08L290.302 514.097C283.822 522.694 278.107 531.765 273.168 541.311L272.927 541.776L273.028 542.29C273.964 547.035 273.375 549.88 271.962 551.416C270.609 552.888 268.037 553.651 263.648 553.076C257.885 547.999 254.677 541.615 253.994 533.868L253.993 533.85L253.991 533.832C251.866 514.918 253.84 496.476 259.914 478.502C279.769 425.154 307.999 376.993 344.619 334C351.883 326.249 359.529 319.068 367.567 312.474C370.569 312.36 373.477 312.816 376.308 313.844C383.266 318.606 388.538 324.86 392.139 332.631L392.188 332.737L392.254 332.835C392.457 333.139 392.502 333.353 392.502 333.5C392.502 333.64 392.461 333.842 392.28 334.125C367.236 366.168 342.572 398.491 318.297 431.104L318.271 431.139L318.247 431.176C311.169 441.943 304.481 452.971 298.195 464.26C294.806 470.132 293.409 476.437 294.006 483.133L294.297 486.4L296.578 484.043Z" fill="black" stroke="white" stroke-width="3"/>
<path opacity="0.99" d="M182.839 387.798C164.882 393.65 149.4 403.378 136.416 416.963L136.359 417.023L136.308 417.089C133.962 420.157 133.198 423.611 134.037 427.33L134.309 428.538L135.547 428.499C171.405 427.371 203.545 437.746 232.026 459.643C239.366 466.561 243.895 474.05 245.729 482.103C247.565 490.168 246.727 498.932 243.109 508.437C237.186 522.253 229.281 534.772 219.391 545.99C201.262 565.292 181.512 582.55 160.13 597.778L160.119 597.786L160.109 597.793C129.487 620.409 95.9672 637.836 59.5252 650.077C46.1569 654.496 32.8442 654.504 19.5486 650.101C13.6439 647.407 9.24722 643.774 6.27352 639.234C3.30204 634.698 1.6901 629.162 1.50227 622.562C2.747 611.404 6.4879 601.171 12.7414 591.842C28.7236 568.566 48.102 548.521 70.8817 531.713C78.5911 526.208 86.2412 520.722 93.822 515.256C108.403 506.637 123.352 498.496 138.67 490.842L138.678 490.838L138.686 490.834C147.505 486.299 156.805 484.35 166.633 484.979C172.115 487.455 175.918 490.727 178.19 494.74C180.373 498.596 181.221 503.277 180.625 508.868C155.637 517.007 132.81 528.972 112.151 544.761C88.4198 559.281 66.5232 576.337 46.4523 595.926L46.3975 595.98L46.3484 596.039C41.2596 602.135 36.5537 608.524 32.2409 615.185L32.1782 615.281L32.131 615.387C30.0962 619.93 29.5741 624.013 31.0701 627.404C32.5729 630.811 35.9149 633.079 40.5798 634.44L40.9114 634.537L41.2519 634.479C54.5787 632.208 67.0784 627.647 78.7527 620.797C100.398 608.329 120.461 593.787 138.942 577.17C149.019 569.934 158.706 562.089 167.993 553.625C186.395 537.902 202.629 520.32 216.715 500.88L216.721 500.872L216.726 500.864C219.232 497.306 220.522 493.688 220.428 490.039C220.334 486.386 218.858 482.885 216.166 479.557L216.049 479.411L215.899 479.299C207.023 472.652 197.178 467.909 186.384 465.05L186.378 465.048C165.509 459.617 144.284 456.607 122.726 456.018C116.729 448.663 111.081 441.062 105.773 433.205C103.673 429.547 103.056 425.663 103.927 421.501C107.697 413.979 111.953 406.771 116.705 399.895C143.295 366.557 177.77 347.268 220.185 341.988L220.665 341.929L221.019 341.601C224.875 338.031 229.264 336.805 234.341 337.89C239.199 341.76 242.087 346.842 243.016 353.216L243.03 353.312L243.056 353.405C243.819 356.125 243.828 358.502 243.18 360.589C242.536 362.662 241.208 364.57 239.091 366.306C227.577 374.468 217.322 384.05 208.338 395.051L208.292 395.108L208.251 395.169C204.533 400.756 202.608 406.915 202.503 413.603C201.873 413.92 201.223 414.189 200.556 414.411C193.06 411.393 188.751 405.959 187.51 397.954C187.819 394.426 187.464 390.963 186.436 387.565L186.042 386.266L184.71 386.528C184.197 386.629 183.661 386.851 183.229 387.286C183.071 387.445 182.942 387.617 182.839 387.798Z" fill="black" stroke="white" stroke-width="3"/>
<path fill-rule="evenodd" clip-rule="evenodd" d="M184 389C184.06 388.46 184.39 388.12 185 388C185.99 391.27 186.32 394.6 186 398C185.33 395 184.67 392 184 389Z" fill="#C70909"/>
<path fill-rule="evenodd" clip-rule="evenodd" d="M586 410H590C582.78 435.77 571.28 459.44 555.5 481C552.33 484.17 549.17 487.33 546 490.5C544.15 491.63 542.15 492.13 540 492C539.83 488.65 540 485.32 540.5 482C547.33 452.65 562.5 428.65 586 410Z" fill="#C70909"/>
<path fill-rule="evenodd" clip-rule="evenodd" d="M463 432C463.54 432.06 463.88 432.39 464 433C456.09 448.23 451.09 464.4 449 481.5C449.29 485.41 449.96 489.24 451 493C442.1 508.74 431.1 522.91 418 535.5C411.29 540.05 407.96 538.39 408 530.5C410.71 514.37 416.21 499.21 424.5 485C435.23 465.77 448.06 448.11 463 432Z" fill="#C70909"/>
</svg>
