<svg width="32" height="32" viewBox="0 0 32 32" fill="none" xmlns="http://www.w3.org/2000/svg">
    <path d="M16 32C24.8366 32 32 24.8366 32 16C32 7.16344 24.8366 0 16 0C7.16344 0 0 7.16344 0 16C0 24.8366 7.16344 32 16 32Z" fill="#0052B4"/>
    <path d="M16 6.26074L16.5181 7.85505H18.1944L16.8382 8.84037L17.3562 10.4347L16 9.4493L14.6438 10.4347L15.1619 8.84037L13.8057 7.85505H15.482L16 6.26074Z" fill="#FFDA44"/>
    <path d="M9.1134 9.11321L10.6071 9.87421L11.7925 8.68896L11.5301 10.3446L13.0238 11.1057L11.3681 11.3679L11.1059 13.0237L10.3448 11.53L8.68921 11.7923L9.87452 10.607L9.1134 9.11321Z" fill="#FFDA44"/>
    <path d="M6.26099 16L7.8553 15.482V13.8057L8.84055 15.1619L10.4349 14.6439L9.44949 16L10.4349 17.3562L8.84055 16.8382L7.8553 18.1944V16.5181L6.26099 16Z" fill="#FFDA44"/>
    <path d="M9.1134 22.8865L9.87446 21.3927L8.68921 20.2074L10.3449 20.4698L11.1058 18.9761L11.3681 20.6318L13.0238 20.894L11.5303 21.6551L11.7925 23.3107L10.6071 22.1254L9.1134 22.8865Z" fill="#FFDA44"/>
    <path d="M16 25.7392L15.4819 24.1449H13.8057L15.1619 23.1596L14.6438 21.5654L16 22.5507L17.3562 21.5654L16.8382 23.1596L18.1944 24.1449H16.518L16 25.7392Z" fill="#FFDA44"/>
    <path d="M22.8869 22.8865L21.3932 22.1255L20.2078 23.3108L20.4701 21.655L18.9766 20.894L20.6322 20.6318L20.8944 18.9761L21.6554 20.4698L23.3111 20.2074L22.1257 21.3928L22.8869 22.8865Z" fill="#FFDA44"/>
    <path d="M25.7392 16L24.1449 16.5181V18.1944L23.1596 16.8382L21.5654 17.3562L22.5507 16L21.5654 14.6439L23.1597 15.1619L24.1449 13.8057V15.482L25.7392 16Z" fill="#FFDA44"/>
    <path d="M22.8869 9.11315L22.1258 10.6069L23.3111 11.7922L21.6554 11.5298L20.8944 13.0235L20.6322 11.3678L18.9766 11.1055L20.4701 10.3445L20.2078 8.68896L21.3933 9.87421L22.8869 9.11315Z" fill="#FFDA44"/>
</svg>
