<svg width="100" height="64" viewBox="0 0 100 64" fill="none" xmlns="http://www.w3.org/2000/svg">
    <path d="M48.0957 0.87275C42.9199 0.823925 39.0137 1.06806 35.7422 2.75264C34.3994 3.43623 33.4473 4.31514 32.7148 5.34053C32.3242 5.85322 31.958 6.31709 31.7871 7.39131C31.6895 7.904 31.6162 8.75849 32.1533 9.68623C32.6904 10.6384 33.8379 11.2731 34.6191 11.3952C35.2051 11.4685 36.4502 11.9812 36.6699 12.2741C37.1826 13.0065 37.3779 13.5437 37.4512 13.8366C37.5244 14.1296 37.5 13.9343 37.5 13.9343V14.2272C37.5 14.2272 37.6953 17.3034 37.5732 20.4772C37.5 22.0397 37.3535 23.6755 37.1094 24.7741C36.8652 25.8728 36.2549 26.1413 37.1338 25.6286C36.5234 25.9948 36.7432 26.1413 35.9863 25.7507C35.2051 25.3845 33.1787 23.6755 30.5176 18.8903C27.8564 14.0808 25.9277 11.5905 25.4883 11.0534C25.3174 10.5651 24.9023 9.56416 23.4863 8.46553C21.6553 7.04951 19.7754 7.02509 19.7754 7.02509L19.6045 7.00068H5.95703C5.95703 7.00068 5.17578 7.02509 4.27246 7.2204C3.36914 7.41572 2.07519 7.63545 0.854489 9.14912H0.830077C-0.415044 10.736 -0.195317 12.1765 -0.0976609 13.0554C0.0244094 13.9587 0.292964 14.6667 0.292964 14.6667L0.341792 14.8132L0.415035 14.9597C0.415035 14.9597 10.8398 37.2009 23.291 50.7507C34.9853 63.4948 48.5352 63.2507 48.5352 63.2507H56.2256L56.3965 63.2263C56.3965 63.2263 58.8623 63.3483 60.9375 61.029C61.9873 59.8327 62.2314 58.7097 62.3535 57.8796C62.5 57.0251 62.5 56.3415 62.5 56.3415V56.5368C62.5 56.5368 62.5977 54.9255 63.0371 53.2409C63.2568 52.4108 63.5742 51.5808 63.8672 51.1169C64.0137 50.8483 64.0137 50.9216 64.0625 50.8483C64.5996 51.239 65.4785 52.1423 66.4062 53.2897C68.3105 55.5603 70.459 58.7097 73.4619 60.8825C75.6348 62.4206 77.6855 63.1042 79.248 63.3483C80.2978 63.5192 81.0547 63.4948 81.5674 63.446L92.1875 63.2507H92.2852C92.2852 63.2507 94.4824 63.2019 96.6797 61.8103C97.7539 61.1267 98.999 59.8815 99.4141 58.0993C99.8535 56.3171 99.3652 54.3884 98.3398 52.6062C98.6816 53.2165 98.2666 52.4108 97.9492 51.7761C97.6318 51.1413 97.1436 50.2868 96.4111 49.2126C94.9951 47.113 92.6514 44.1589 88.7695 40.3991C86.9385 38.6413 85.7666 37.6647 85.0342 36.9812C85.2539 36.6638 85.2783 36.6394 86.1084 35.6628C87.4267 34.1247 89.3555 31.8542 91.7969 28.4606C94.7266 24.3591 96.8506 21.0144 98.2178 18.2312C99.585 15.4724 100.684 13.1774 99.4629 10.3454C98.8037 8.80732 97.6318 8.22139 96.7773 7.85518C95.8984 7.48896 95.1172 7.34248 94.3848 7.2204C92.9443 7.00068 91.6748 7.00068 91.6748 7.00068L79.2969 7.09834C78.9307 7.02509 77.5146 6.75654 75.6836 7.92842C73.877 9.05146 73.4619 10.2478 73.3643 10.614C73.0713 11.029 71.0205 13.9343 68.1641 19.0124C65.2832 24.1394 63.3301 25.531 63.0859 25.653C63.0127 25.5798 63.1592 25.6042 62.8174 25.4089C62.6709 25.2868 62.5244 25.1892 62.4023 23.8708C62.3047 22.5524 62.4268 20.4772 62.4268 18.0358C62.4268 12.7868 62.8906 10.0524 62.6221 7.44014C62.5 6.12177 61.9629 4.51045 60.791 3.43623C59.6191 2.38643 58.3496 1.9958 57.0312 1.654C54.9561 1.14131 52.1484 0.921581 48.0957 0.87275ZM48.0469 7.12275C51.8311 7.17158 54.4922 7.46455 55.4687 7.70869C56.2988 7.92842 56.4209 8.02608 56.3965 7.97724C56.3965 8.02608 56.3965 8.00166 56.3965 8.0749C56.4941 9.12471 56.1768 12.4938 56.1768 18.0358C56.1768 20.2087 56.0059 22.3083 56.1768 24.4079C56.3477 26.5075 57.1045 29.071 59.3262 30.5847H59.3506C59.082 30.4138 62.1582 32.7087 65.0879 31.6589C68.0176 30.5847 70.3369 27.8991 73.6328 22.0642C76.5137 16.8884 78.6377 13.9831 78.6377 13.9831L78.833 13.6901L78.9795 13.3972C78.9795 13.3972 78.9307 13.3728 78.9795 13.3483L91.6748 13.2507C91.6748 13.2507 92.5537 13.2507 93.4082 13.3972C93.4326 13.3972 93.457 13.3972 93.4814 13.3972C93.3594 13.446 93.457 13.7634 92.6025 15.4968C91.5039 17.7185 89.5264 20.8923 86.7187 24.8229C84.3994 28.0212 82.666 30.0964 81.3721 31.6101C80.0781 33.0993 79.1016 33.8073 78.4668 35.7605C78.1494 36.7126 78.2226 38.1286 78.6865 39.0808C79.126 40.0085 79.6631 40.5212 80.2002 41.0339C81.2744 42.0593 82.5439 43.0603 84.3994 44.8913C88.0371 48.4069 90.0879 50.9948 91.2353 52.7038C91.8213 53.5827 92.1631 54.1931 92.3828 54.6325C92.6025 55.072 92.456 54.9011 92.9443 55.7312C93.3594 56.488 93.2861 56.5856 93.2861 56.5368C92.8711 56.781 91.8213 57.0007 91.7969 57.0007L81.1768 57.196L80.8838 57.2692C80.8838 57.2692 80.9082 57.2937 80.249 57.196C79.5654 57.0739 78.4912 56.781 77.124 55.8044C75.4394 54.6081 73.3154 51.8249 71.2158 49.2858C70.1904 48.0407 69.1406 46.82 67.8223 45.8435C66.5039 44.8669 64.4287 43.9636 62.3047 44.6716C60.4736 45.2575 59.2773 46.6003 58.5205 47.8454C57.7637 49.1149 57.3242 50.4333 56.9824 51.6296C56.3477 54.0466 56.25 56.2194 56.25 56.2194V56.4147C56.25 56.4147 56.25 56.5612 56.2012 56.781C56.0791 56.8298 55.9082 56.9519 55.8105 57.0007H48.3398C48.3398 57.0007 38.0127 57.5378 27.8809 46.5515C17.041 34.7106 7.39746 14.9108 6.59179 13.2507H19.165C19.2871 13.2995 19.7266 13.4704 19.6777 13.446C19.3848 13.2019 19.8242 13.739 19.8242 13.739L20.0195 14.2028L20.3613 14.5935C20.3613 14.5935 22.29 16.9372 25.0488 21.9177C28.0029 27.2644 30.4932 30.0476 33.2764 31.3903C36.0596 32.7331 38.9893 31.781 40.2344 31.0729C42.5537 29.7302 42.8223 27.8503 43.2129 26.1169C43.6035 24.3835 43.7256 22.528 43.7988 20.7214C43.9453 17.2546 43.75 14.3005 43.75 14.0808C43.7256 14.0075 43.7256 13.153 43.4814 12.2253C43.2129 11.2731 42.7246 10.028 41.7969 8.70967C41.4062 8.17256 41.04 8.44111 40.625 8.05049C42.3584 7.56221 44.2139 7.07392 48.0469 7.12275Z" fill="white"/>
</svg>
